<?xml version="1.0" encoding="UTF-8" standalone="no"?>
<!-- Created with Inkscape (http://www.inkscape.org/) -->

<svg
   version="1.1"
   id="svg2"
   width="1889.76"
   height="1889.76"
   viewBox="0 0 1889.76 1889.76"
   sodipodi:docname="pee logo X 2 (square).ai"
   xmlns:inkscape="http://www.inkscape.org/namespaces/inkscape"
   xmlns:sodipodi="http://sodipodi.sourceforge.net/DTD/sodipodi-0.dtd"
   xmlns="http://www.w3.org/2000/svg"
   xmlns:svg="http://www.w3.org/2000/svg">
  <defs
     id="defs6">
    <clipPath
       clipPathUnits="userSpaceOnUse"
       id="clipPath16">
      <path
         d="M 0,1417.323 H 1417.323 V 0 H 0 Z"
         id="path14" />
    </clipPath>
  </defs>
  <sodipodi:namedview
     id="namedview4"
     pagecolor="#ffffff"
     bordercolor="#000000"
     borderopacity="0.25"
     inkscape:showpageshadow="2"
     inkscape:pageopacity="0.0"
     inkscape:pagecheckerboard="0"
     inkscape:deskcolor="#d1d1d1" />
  <g
     id="g8"
     inkscape:groupmode="layer"
     inkscape:label="pee logo X 2 (square)"
     transform="matrix(1.3333333,0,0,-1.3333333,0,1889.76)">
    <g
       id="g10">
      <g
         id="g12"
         clip-path="url(#clipPath16)">
        <g
           id="g18"
           transform="translate(81.9864,707.599)">
          <path
             d="m 0,0 c 0.148,0.148 0.396,0.276 0.429,0.446 3.265,17.063 14.065,21.74 30.673,22.278 45.689,1.481 91.321,4.709 136.975,7.254 36.689,2.045 73.376,4.105 110.065,6.153 7.922,0.442 15.841,0.963 23.769,1.263 13.516,0.512 23.321,-7.366 24.928,-21.001 1.758,-14.91 2.791,-29.913 3.797,-44.898 0.485,-7.222 1.157,-14.655 0.016,-21.713 -1.861,-11.511 -8.999,-17.414 -20.648,-18.12 -25.009,-1.514 -50.041,-2.637 -75.058,-4.021 -28.978,-1.603 -57.956,-3.213 -86.922,-5.027 -11.656,-0.73 -20.998,-13.721 -19.944,-27.649 1.747,-23.091 3.54,-46.182 5.709,-69.235 1.62,-17.22 13.723,-26.207 30.947,-24.743 17.257,1.467 34.594,1.989 51.893,2.965 28.137,1.589 56.326,2.589 84.392,5.014 22.561,1.95 31.499,-8.325 33.285,-30.407 1.295,-16.012 2.983,-32.015 3.558,-48.055 0.498,-13.933 -7.55,-25.971 -23.342,-26.523 -40.882,-1.432 -81.707,-4.497 -122.555,-6.905 -7.294,-0.43 -14.6,-0.69 -21.88,-1.281 -15.749,-1.279 -24.834,-10.762 -24.035,-26.625 1.091,-21.669 3.167,-43.288 4.836,-64.927 0.53,-6.865 1.213,-13.719 1.648,-20.589 1.094,-17.281 11.511,-27.499 28.65,-26.679 36.073,1.727 72.118,4.036 108.181,6.002 20.016,1.091 40.039,2.097 60.069,2.866 5.308,0.204 7.83,1.301 8.738,7.524 7.974,54.632 16.434,109.194 24.792,163.77 7.38,48.19 14.845,96.368 22.207,144.561 2.737,17.92 5.285,35.87 7.927,53.804 1.875,12.725 8.35,18.545 20.234,19.453 32.015,2.443 63.926,6.238 95.886,9.413 10.611,1.055 17.041,-3.382 21.79,-14.864 16.258,-39.309 32.464,-78.639 48.709,-117.954 41.805,-101.171 83.649,-202.325 125.334,-303.546 1.781,-4.326 2.927,-9.237 2.975,-13.889 0.117,-11.383 -6.106,-18.131 -17.632,-19.383 -20.525,-2.229 -41.074,-4.271 -61.643,-6.047 -12.078,-1.043 -17.675,2.561 -22.223,13.8 -11.573,28.606 -22.865,57.325 -34.591,85.867 -2.009,4.889 -5.028,9.658 -8.611,13.53 -4.394,4.748 -10.521,4.916 -16.896,4.23 -23.843,-2.568 -47.711,-4.96 -71.607,-6.961 -10.868,-0.91 -17.64,6.5 -16.493,17.515 1.772,16.999 3.82,33.972 5.952,50.931 1.109,8.82 4.246,11.53 12.835,12.349 12.251,1.169 24.5,2.372 36.731,3.724 11.116,1.228 19.788,14 16.269,25.971 -3.866,13.152 -9.447,25.799 -14.266,38.673 -15.488,41.383 -30.964,82.772 -46.472,124.147 -0.749,1.996 -1.767,3.891 -2.66,5.833 -0.666,-0.076 -1.333,-0.152 -1.999,-0.228 -0.755,-7.316 -1.554,-14.627 -2.258,-21.948 -2.812,-29.27 -5.523,-58.549 -8.41,-87.811 -2.559,-25.939 -5.242,-51.866 -7.981,-77.786 -2.674,-25.296 -5.497,-50.577 -8.237,-75.867 -2.695,-24.874 -5.334,-49.754 -8.061,-74.625 -2.068,-18.858 -4.098,-37.723 -6.418,-56.551 -1.197,-9.717 -6.687,-15.442 -16.638,-16.465 -25.727,-2.644 -51.475,-5.211 -77.271,-7.017 -34.777,-2.435 -69.606,-4.15 -104.414,-6.132 -23.764,-1.354 -47.529,-2.681 -71.298,-3.939 -34.612,-1.832 -69.302,-2.744 -103.809,-5.758 -15.98,-1.395 -26.932,10.359 -28.078,25.049 -3.083,39.527 -6.003,79.067 -9.037,118.598 -2.458,32.037 -4.932,64.073 -7.5,96.101 -3.184,39.723 -6.552,79.431 -9.687,119.157 -2.297,29.123 -4.306,58.267 -6.516,87.396 -2.51,33.08 -5.088,66.155 -7.705,99.227 C 1.295,-8.932 0.484,-7.614 0,-6.27 Z"
             style="fill:#ed6942;fill-opacity:1;fill-rule:nonzero;stroke:none"
             id="path20" />
        </g>
        <g
           id="g22"
           transform="translate(1078.9967,212.4342)">
          <path
             d="m 0,0 c 2.528,38.731 5.088,77.459 7.568,116.193 1.028,16.039 2.267,32.079 2.621,48.137 0.128,5.841 -1.106,12.109 -3.296,17.546 -33.724,83.721 -67.687,167.346 -101.665,250.964 -3.471,8.541 -4.351,16.991 -0.016,25.354 3.681,7.1 9.539,10.895 17.826,10.157 22.227,-1.979 44.432,-4.286 66.691,-5.793 9.563,-0.648 14.739,-5.503 18.08,-13.737 15.989,-39.405 32.051,-78.781 48.087,-118.168 0.472,-1.158 0.914,-2.329 1.399,-3.482 3.112,-7.384 7.842,-13.037 16.453,-13.403 8.308,-0.353 13.361,4.666 17.229,11.441 20.487,35.877 41.045,71.714 61.581,107.563 8.119,14.173 12.141,15.885 28.476,14.116 17.416,-1.886 34.929,-4.682 52.344,-4.324 21.699,0.447 27.661,-22.248 19.399,-36.201 -8.718,-14.723 -17.581,-29.358 -26.398,-44.022 -37.318,-62.062 -74.766,-124.047 -111.76,-186.302 -3.446,-5.799 -5.202,-13.205 -5.744,-20.024 -2.417,-30.366 -4.15,-60.788 -6.046,-91.195 -1.468,-23.538 -2.785,-47.086 -4.233,-70.626 -0.243,-3.95 -0.517,-7.94 -1.293,-11.807 -2.22,-11.068 -10.92,-16.877 -21.908,-15.74 -17.426,1.802 -34.891,4.159 -52.358,4.329 -14.565,0.142 -24.267,9.139 -22.95,25.251 0.102,1.248 0.123,2.504 0.182,3.756 C 0.18,-0.011 0.09,-0.006 0,0"
             style="fill:#ed6942;fill-opacity:1;fill-rule:nonzero;stroke:none"
             id="path24" />
        </g>
        <g
           id="g26"
           transform="translate(886.7958,184.5705)">
          <path
             d="m 0,0 c -9.78,0.919 -21.224,1.758 -32.602,3.138 -9.261,1.124 -16.554,9.198 -17.865,19.999 -1.682,13.864 -3.135,27.777 -4.011,41.711 -0.909,14.471 4.729,18.927 19.167,17.647 14.934,-1.323 29.974,-2.687 44.923,-2.304 19.061,0.488 37.771,4.073 54.73,13.596 15.797,8.87 25.595,21.912 23.817,40.674 -1.826,19.272 -11.867,33.51 -29.856,41.634 -16.366,7.391 -33.845,10.163 -51.44,12.514 -35.95,4.803 -70.595,13.38 -99.913,36.293 -27.401,21.415 -42.221,50.118 -46.976,84.159 -5.446,38.993 5.227,72.83 34.157,100.037 21.109,19.852 46.907,30.776 74.856,37.051 23.545,5.287 47.254,7.887 71.438,5.152 12.431,-1.406 20.783,-8.34 21.992,-20.672 1.283,-13.077 2.283,-26.208 2.691,-39.338 0.483,-15.524 -5.31,-19.963 -20.726,-18.074 -23.096,2.831 -45.879,0.914 -67.896,-6.865 -14.037,-4.959 -25.847,-13.033 -31.36,-27.683 -5.883,-15.631 0.776,-35.337 15.045,-45.57 12.395,-8.89 26.932,-11.993 41.458,-14.941 23.257,-4.72 46.958,-7.776 69.767,-14.085 56.222,-15.55 89.427,-53.504 99.765,-110.428 C 181.049,99.197 160.245,53.543 107.256,25.205 80.975,11.15 52.674,3.681 22.953,1.594 15.877,1.097 8.801,0.611 0,0"
             style="fill:#ed6942;fill-opacity:1;fill-rule:nonzero;stroke:none"
             id="path28" />
        </g>
        <g
           id="g30"
           transform="translate(278.8986,1237.4159)">
          <path
             d="m 0,0 c 11.406,-2.109 27.341,-3.574 42.332,-8.139 30.618,-9.326 51.306,-30.582 63.756,-59.628 13.463,-31.412 16.572,-64.208 8.524,-97.397 -9.58,-39.509 -36.516,-64.017 -72.634,-79.74 -18.321,-7.976 -37.611,-12.661 -57.39,-14.379 -9.951,-0.865 -16.23,-11.215 -14.876,-20.239 4.172,-27.81 8.645,-55.574 12.951,-83.363 1.148,-7.406 2.608,-14.811 3.044,-22.268 0.598,-10.207 -4.112,-15.713 -13.994,-17.327 -13.776,-2.25 -27.564,-4.432 -41.38,-6.417 -11.922,-1.713 -18.471,3.358 -20.35,15.44 -8.8,56.603 -17.556,113.213 -26.377,169.813 -3.143,20.167 -6.406,40.317 -9.647,60.469 -2.136,13.279 2.358,19.928 15.442,23.062 12.766,3.059 25.49,6.292 38.239,9.421 11.257,2.762 18.291,-1.349 20.665,-12.809 2.025,-9.779 3.145,-19.742 4.943,-29.573 0.703,-3.844 1.639,-7.818 3.395,-11.261 3.177,-6.229 8.211,-9.439 15.769,-8.782 21.365,1.857 41.146,7.163 56.009,23.993 21.201,24.006 17.313,70.096 -7.782,90.006 -13.641,10.821 -29.92,13.77 -46.268,10.286 -30.74,-6.552 -61.147,-14.682 -91.65,-22.323 -12.161,-3.046 -19.423,1.083 -21.648,13.334 -2.159,11.885 -4.028,23.828 -5.739,35.787 -1.186,8.288 3.36,15.386 11.357,17.842 31.748,9.75 64.181,16.387 97.079,20.725 C -25.697,-2.078 -15.069,-1.416 0,0"
             style="fill:#ed6942;fill-opacity:1;fill-rule:nonzero;stroke:none"
             id="path32" />
        </g>
        <g
           id="g34"
           transform="translate(812.4899,938.2823)">
          <path
             d="m 0,0 c 6.45,0.004 10.087,-2.829 11.586,-8.381 2.009,-7.44 4.146,-14.852 5.882,-22.356 1.64,-7.092 -1.924,-11.885 -10.039,-13.783 -23.737,-5.551 -47.496,-11.011 -71.247,-16.506 -2.638,-0.61 -5.316,-1.088 -7.909,-1.853 -7.475,-2.205 -10.936,-7.858 -9.128,-15.358 2.197,-9.107 4.533,-18.189 7.116,-27.193 2.409,-8.397 8.243,-11.649 16.793,-9.678 23.351,5.382 46.693,10.802 70.03,16.245 11.514,2.685 15.71,0.163 18.552,-11.206 1.415,-5.659 3.006,-11.274 4.378,-16.943 1.909,-7.885 -0.715,-12.537 -8.622,-14.438 -24.311,-5.845 -48.677,-11.46 -73.003,-17.24 -8.715,-2.071 -12.346,-7.462 -10.343,-16.115 2.677,-11.564 5.645,-23.071 8.888,-34.489 2.28,-8.028 8.707,-10.98 18.001,-8.826 18.067,4.186 36.12,8.434 54.177,12.662 9.332,2.185 18.651,4.426 27.995,6.56 8.989,2.052 13.831,-0.897 16.216,-9.922 1.809,-6.846 3.797,-13.674 5.055,-20.627 1.351,-7.475 -1.607,-11.54 -8.949,-13.251 -48.096,-11.208 -96.198,-22.384 -144.309,-33.524 -9.255,-2.143 -13.927,1.13 -16.531,11.25 -16.347,63.542 -32.701,127.083 -49.045,190.626 -2.232,8.675 -4.453,17.353 -6.621,26.043 -2.303,9.23 0.111,13.433 9.199,15.567 45.64,10.716 91.295,21.373 136.952,32.021 C -3.106,-0.291 -1.215,-0.171 0,0"
             style="fill:#ed6942;fill-opacity:1;fill-rule:nonzero;stroke:none"
             id="path36" />
        </g>
        <g
           id="g38"
           transform="translate(675.9355,1179.7382)">
          <path
             d="m 0,0 c -2.488,-6.976 -4.86,-13.997 -7.484,-20.922 -20.823,-54.944 -41.714,-109.862 -62.518,-164.814 -2.143,-5.659 -5.934,-8.345 -11.956,-7.888 -12.687,0.963 -25.396,1.7 -38.053,2.965 -9.029,0.901 -12.293,8.419 -8.093,17.974 10.486,23.855 21.053,47.675 31.585,71.509 19.633,44.428 39.269,88.855 58.893,133.287 4.386,9.932 7.089,11.135 17.855,10.06 17.222,-1.72 34.484,-3.091 51.751,-4.283 12.667,-0.874 14.81,-2.207 17.834,-14.012 18.652,-72.811 37.269,-145.631 55.871,-218.455 2.223,-8.703 -2.307,-14.64 -11.166,-14.135 -13.535,0.772 -27.058,1.822 -40.558,3.067 -5.709,0.527 -9.357,3.749 -10.747,9.704 -3.454,14.799 -7.29,29.509 -10.842,44.286 -1.586,6.596 -5.059,10.689 -12.248,11.255 -13.094,1.031 -26.17,2.302 -39.249,3.516 -3.111,0.289 -6.299,0.4 -9.286,1.206 -4.49,1.213 -6.663,4.334 -4.979,8.995 2.901,8.033 6.008,15.994 9.141,23.94 1.725,4.374 5.301,5.555 9.668,5.087 6.426,-0.688 12.861,-1.304 19.279,-2.058 11.821,-1.39 18.007,5.776 15.414,17.485 C 14.396,-56.421 8.893,-30.564 3.266,-4.735 2.924,-3.167 2.259,-1.671 1.744,-0.141 1.163,-0.094 0.581,-0.047 0,0"
             style="fill:#ed6942;fill-opacity:1;fill-rule:nonzero;stroke:none"
             id="path40" />
        </g>
        <g
           id="g42"
           transform="translate(980.6351,941.7513)">
          <path
             d="m 0,0 c -0.795,-5.446 -1.523,-9.816 -2.061,-14.21 -4.331,-35.364 -8.503,-70.748 -12.974,-106.095 -3.189,-25.216 -6.699,-50.392 -10.207,-75.566 -1.161,-8.331 -4.223,-10.699 -12.846,-11.608 -11.19,-1.179 -22.333,-2.813 -33.529,-3.923 -10.1,-1.002 -14.809,4.263 -12.957,14.28 12.035,65.117 24.125,130.224 36.199,195.333 1.746,9.419 3.542,18.828 5.236,28.255 0.949,5.285 4.249,7.943 9.336,8.596 19.638,2.521 39.269,5.098 58.929,7.433 9.639,1.145 12.017,-0.317 16.426,-8.832 34.534,-66.68 69.064,-133.363 103.579,-200.054 6.271,-12.118 2.605,-18.468 -10.934,-19.772 -11.405,-1.098 -22.796,-2.455 -34.132,-4.117 -6.861,-1.006 -11.133,1.57 -14.095,7.579 -6.365,12.914 -12.907,25.742 -19.416,38.586 -4.99,9.847 -7.911,11.192 -18.874,9.714 -13.839,-1.866 -27.702,-3.562 -41.573,-5.177 -6.992,-0.814 -10.419,3.062 -9.416,10.125 1.026,7.221 2.139,14.437 2.859,21.69 0.467,4.709 2.67,7.184 7.325,7.789 7.851,1.02 15.729,1.926 23.515,3.333 8.262,1.492 12.33,8.869 8.789,16.483 C 27.137,-54.271 14.798,-28.523 2.538,-2.739 2.219,-2.068 1.495,-1.589 0,0"
             style="fill:#ed6942;fill-opacity:1;fill-rule:nonzero;stroke:none"
             id="path44" />
        </g>
        <g
           id="g46"
           transform="translate(399.5164,960.4559)">
          <path
             d="m 0,0 c 2.516,17.59 5.246,36.986 8.073,56.367 4.422,30.308 8.913,60.605 13.369,90.908 4.879,33.183 9.748,66.367 14.629,99.549 0.88,5.979 1.568,11.998 2.749,17.918 1.696,8.51 7.489,12.137 15.989,10.789 12.761,-2.025 25.536,-3.98 38.338,-5.713 11.421,-1.545 15.543,-6.752 13.892,-18.333 -2.057,-14.437 -4.132,-28.872 -6.275,-43.296 -4.01,-26.997 -8.151,-53.974 -12.095,-80.98 C 84.634,99.585 80.73,71.941 76.855,44.294 c -1.309,-9.333 3.33,-15.947 12.779,-17.41 21.212,-3.285 42.486,-6.17 63.729,-9.257 10.517,-1.529 21.052,-2.968 31.521,-4.78 8.126,-1.405 11.989,-5.858 11.247,-13.796 -0.947,-10.144 -2.355,-20.289 -4.339,-30.28 -1.539,-7.75 -7.623,-10.945 -15.526,-9.793 -38.976,5.68 -77.971,11.228 -116.949,16.893 -15.878,2.308 -31.741,4.72 -47.589,7.226 C 2.623,-15.463 -0.614,-11.172 0,0"
             style="fill:#ed6942;fill-opacity:1;fill-rule:nonzero;stroke:none"
             id="path48" />
        </g>
        <g
           id="g50"
           transform="translate(858.9175,971.3447)">
          <path
             d="m 0,0 c -9.84,-0.248 -13.859,3.072 -15.023,11.704 -1.559,11.565 -2.678,23.189 -4.032,34.783 -2.489,21.319 -4.856,42.654 -7.672,63.93 -0.465,3.511 -2.567,7.006 -4.569,10.081 -28.02,43.035 -56.201,85.966 -84.166,129.036 -2.058,3.171 -3.617,7.152 -3.919,10.877 -0.627,7.744 2.961,11.326 10.851,12.311 12.617,1.573 25.242,3.08 37.846,4.754 5.91,0.785 9.926,-1.562 13.099,-6.449 13.075,-20.131 26.276,-40.18 39.478,-60.227 1.484,-2.253 2.969,-4.659 4.976,-6.387 6.324,-5.443 14.215,-2.639 17.618,6.343 4.429,11.691 8.564,23.493 12.828,35.247 4.264,11.754 8.58,23.489 12.774,35.268 2.037,5.72 5.633,8.612 11.986,9.087 11.423,0.854 22.798,2.41 34.176,3.806 11.692,1.435 18.565,-6.948 14.386,-18.122 C 84.285,259.058 77.623,242.19 71.055,225.288 58.523,193.039 45.6,160.933 33.728,128.444 31.392,122.053 32.275,114.112 33.031,107.03 35.907,80.095 39.35,53.22 42.546,26.318 c 0.32,-2.693 0.439,-5.411 0.59,-8.121 C 43.691,8.216 40.524,4.739 30.464,3.658 19.687,2.499 8.939,1.083 0,0"
             style="fill:#ed6942;fill-opacity:1;fill-rule:nonzero;stroke:none"
             id="path52" />
        </g>
        <g
           id="g54"
           transform="translate(1077.9392,989.9173)">
          <path
             d="m 0,0 c -0.002,1.047 0.034,2.093 -0.008,3.136 -0.562,14.138 0.951,15.798 15.113,16.591 37.31,2.092 74.62,4.186 111.93,6.281 15.632,0.878 31.26,1.824 46.896,2.62 8.146,0.416 11.855,-3.135 12.355,-11.299 0.728,-11.877 1.506,-23.751 2.286,-35.625 0.543,-8.266 -2.718,-12.741 -11.091,-13.442 -12.268,-1.026 -24.589,-1.781 -36.894,-1.897 -13.781,-0.13 -18.507,-5.707 -17.417,-19.343 2.044,-25.589 2.81,-51.279 4.188,-76.922 1.635,-30.437 3.441,-60.865 4.991,-91.307 0.531,-10.431 -0.705,-11.406 -10.989,-11.975 -10.002,-0.553 -19.998,-1.254 -29.984,-2.047 -6.958,-0.552 -11.7,3.071 -12.291,10.162 -0.918,11.024 -1.687,22.064 -2.301,33.11 -2.595,46.694 -5.104,93.392 -7.656,140.088 -0.483,8.834 -5.221,13.525 -13.956,13.162 C 43.077,-39.21 30.978,-39.871 18.919,-40.914 5.781,-42.051 1.766,-38.659 1.387,-25.645 1.137,-17.092 0.478,-8.55 0,0"
             style="fill:#ed6942;fill-opacity:1;fill-rule:nonzero;stroke:none"
             id="path56" />
        </g>
      </g>
    </g>
  </g>
</svg>
