<svg width="41" height="40" viewBox="0 0 41 40" fill="none" xmlns="http://www.w3.org/2000/svg">
<path d="M32.4998 13.6543C32.2249 12.6111 31.4117 11.7882 30.377 11.5061C28.5062 11 21 11 21 11C21 11 13.4976 11 11.623 11.5061C10.5921 11.7843 9.77887 12.6073 9.50016 13.6543C9 15.5475 9 19.5 9 19.5C9 19.5 9 23.4525 9.50016 25.3457C9.77506 26.3889 10.5883 27.2118 11.623 27.4939C13.4976 28 21 28 21 28C21 28 28.5062 28 30.377 27.4939C31.4079 27.2157 32.2211 26.3927 32.4998 25.3457C33 23.4525 33 19.5 33 19.5C33 19.5 33 15.5475 32.4998 13.6543Z" fill="#FF3000"/>
<path d="M18.6023 23.1434L24.8371 19.5L18.6023 15.8566V23.1434Z" fill="white"/>
</svg>
