<svg width="41" height="40" viewBox="0 0 41 40" fill="none" xmlns="http://www.w3.org/2000/svg">
<path d="M9.03027 10.6038C9.03027 9.73513 9.75751 9.03003 10.654 9.03003H29.3766C30.2734 9.03003 31.0003 9.73513 31.0003 10.6038V29.4265C31.0003 30.2954 30.2734 31 29.3766 31H10.654C9.7576 31 9.03027 30.2955 9.03027 29.4268V10.6035V10.6038Z" fill="#006699"/>
<path d="M15.707 27.416V17.5251H12.4194V27.416H15.7073H15.707ZM14.0639 16.1749C15.2101 16.1749 15.9237 15.4154 15.9237 14.4662C15.9022 13.4954 15.2101 12.7571 14.0857 12.7571C12.9605 12.7571 12.2256 13.4954 12.2256 14.4661C12.2256 15.4153 12.9389 16.1748 14.0423 16.1748H14.0636L14.0639 16.1749ZM17.5267 27.416H20.8141V21.8931C20.8141 21.5979 20.8355 21.3019 20.9224 21.091C21.1599 20.5001 21.7008 19.8885 22.6092 19.8885C23.7985 19.8885 24.2746 20.7954 24.2746 22.1252V27.416H27.5618V21.7449C27.5618 18.7069 25.9402 17.2932 23.7773 17.2932C22.004 17.2932 21.2251 18.2843 20.7924 18.9594H20.8143V17.5254H17.5269C17.5698 18.4533 17.5266 27.4164 17.5266 27.4164L17.5267 27.416Z" fill="white"/>
</svg>
