<svg width="41" height="40" viewBox="0 0 41 40" fill="none" xmlns="http://www.w3.org/2000/svg">
<path d="M17.1673 19.9941C17.1673 18.1543 18.6592 16.6625 20.5001 16.6625C22.341 16.6625 23.8338 18.1543 23.8338 19.9941C23.8338 21.8339 22.341 23.3258 20.5001 23.3258C18.6592 23.3258 17.1673 21.8339 17.1673 19.9941ZM15.3652 19.9941C15.3652 22.8285 17.6641 25.126 20.5001 25.126C23.3362 25.126 25.6351 22.8285 25.6351 19.9941C25.6351 17.1598 23.3362 14.8623 20.5001 14.8623C17.6641 14.8623 15.3652 17.1598 15.3652 19.9941ZM24.6383 14.6588C24.6382 14.896 24.7085 15.1279 24.8403 15.3252C24.9721 15.5224 25.1594 15.6762 25.3787 15.7671C25.5979 15.8579 25.8392 15.8818 26.072 15.8356C26.3048 15.7894 26.5187 15.6753 26.6865 15.5076C26.8544 15.34 26.9688 15.1263 27.0152 14.8937C27.0616 14.6611 27.0379 14.4199 26.9472 14.2008C26.8565 13.9816 26.7027 13.7942 26.5054 13.6624C26.3081 13.5305 26.0762 13.4601 25.8388 13.46H25.8383C25.5202 13.4601 25.2151 13.5865 24.9901 13.8112C24.7651 14.036 24.6386 14.3408 24.6383 14.6588ZM16.4601 28.1291C15.4851 28.0847 14.9552 27.9224 14.603 27.7853C14.1361 27.6037 13.803 27.3873 13.4528 27.0377C13.1025 26.6882 12.8857 26.3556 12.7047 25.889C12.5675 25.5372 12.4051 25.0074 12.3607 24.033C12.3123 22.9796 12.3026 22.6631 12.3026 19.9942C12.3026 17.3253 12.3131 17.0097 12.3607 15.9554C12.4051 14.981 12.5687 14.4523 12.7047 14.0994C12.8865 13.6328 13.103 13.2999 13.4528 12.9499C13.8025 12.5998 14.1353 12.3832 14.603 12.2023C14.955 12.0651 15.4851 11.9028 16.4601 11.8585C17.5142 11.8101 17.8308 11.8004 20.5001 11.8004C23.1694 11.8004 23.4864 11.8109 24.5414 11.8585C25.5163 11.9029 26.0454 12.0664 26.3984 12.2023C26.8653 12.3832 27.1984 12.6003 27.5487 12.9499C27.8989 13.2994 28.1149 13.6328 28.2967 14.0994C28.434 14.4512 28.5964 14.981 28.6407 15.9554C28.6892 17.0097 28.6989 17.3253 28.6989 19.9942C28.6989 22.6631 28.6892 22.9787 28.6407 24.033C28.5963 25.0074 28.4331 25.537 28.2967 25.889C28.1149 26.3556 27.8985 26.6885 27.5487 27.0377C27.1989 27.387 26.8653 27.6037 26.3984 27.7853C26.0464 27.9225 25.5163 28.0848 24.5414 28.1291C23.4873 28.1776 23.1706 28.1872 20.5001 28.1872C17.8296 28.1872 17.5138 28.1776 16.4601 28.1291ZM16.3773 10.0605C15.3127 10.109 14.5852 10.2777 13.95 10.5247C13.292 10.7799 12.7351 11.1221 12.1785 11.6775C11.6219 12.2328 11.2803 12.7904 11.025 13.4479C10.7778 14.0832 10.609 14.8098 10.5606 15.8737C10.5113 16.9394 10.5 17.28 10.5 19.9941C10.5 22.7082 10.5113 23.0489 10.5606 24.1145C10.609 25.1785 10.7778 25.9051 11.025 26.5404C11.2803 27.1975 11.622 27.7556 12.1785 28.3108C12.735 28.8659 13.292 29.2077 13.95 29.4635C14.5864 29.7106 15.3127 29.8793 16.3773 29.9277C17.4441 29.9762 17.7844 29.9883 20.5001 29.9883C23.2158 29.9883 23.5567 29.977 24.623 29.9277C25.6876 29.8793 26.4146 29.7106 27.0503 29.4635C27.7078 29.2077 28.2652 28.8661 28.8217 28.3108C29.3783 27.7554 29.7192 27.1975 29.9752 26.5404C30.2224 25.9051 30.392 25.1784 30.4397 24.1145C30.4882 23.0481 30.4994 22.7082 30.4994 19.9941C30.4994 17.28 30.4882 16.9394 30.4397 15.8737C30.3912 14.8097 30.2224 14.0828 29.9752 13.4479C29.7192 12.7908 29.3774 12.2337 28.8217 11.6775C28.2661 11.1213 27.7078 10.7799 27.0511 10.5247C26.4146 10.2777 25.6875 10.1082 24.6238 10.0605C23.5575 10.0121 23.2166 10 20.5009 10C17.7852 10 17.4441 10.0113 16.3773 10.0605Z" fill="url(#paint0_radial_1_388)"/>
<path d="M17.1673 19.9941C17.1673 18.1543 18.6592 16.6625 20.5001 16.6625C22.341 16.6625 23.8338 18.1543 23.8338 19.9941C23.8338 21.8339 22.341 23.3258 20.5001 23.3258C18.6592 23.3258 17.1673 21.8339 17.1673 19.9941ZM15.3652 19.9941C15.3652 22.8285 17.6641 25.126 20.5001 25.126C23.3362 25.126 25.6351 22.8285 25.6351 19.9941C25.6351 17.1598 23.3362 14.8623 20.5001 14.8623C17.6641 14.8623 15.3652 17.1598 15.3652 19.9941ZM24.6383 14.6588C24.6382 14.896 24.7085 15.1279 24.8403 15.3252C24.9721 15.5224 25.1594 15.6762 25.3787 15.7671C25.5979 15.8579 25.8392 15.8818 26.072 15.8356C26.3048 15.7894 26.5187 15.6753 26.6865 15.5076C26.8544 15.34 26.9688 15.1263 27.0152 14.8937C27.0616 14.6611 27.0379 14.4199 26.9472 14.2008C26.8565 13.9816 26.7027 13.7942 26.5054 13.6624C26.3081 13.5305 26.0762 13.4601 25.8388 13.46H25.8383C25.5202 13.4601 25.2151 13.5865 24.9901 13.8112C24.7651 14.036 24.6386 14.3408 24.6383 14.6588ZM16.4601 28.1291C15.4851 28.0847 14.9552 27.9224 14.603 27.7853C14.1361 27.6037 13.803 27.3873 13.4528 27.0377C13.1025 26.6882 12.8857 26.3556 12.7047 25.889C12.5675 25.5372 12.4051 25.0074 12.3607 24.033C12.3123 22.9796 12.3026 22.6631 12.3026 19.9942C12.3026 17.3253 12.3131 17.0097 12.3607 15.9554C12.4051 14.981 12.5687 14.4523 12.7047 14.0994C12.8865 13.6328 13.103 13.2999 13.4528 12.9499C13.8025 12.5998 14.1353 12.3832 14.603 12.2023C14.955 12.0651 15.4851 11.9028 16.4601 11.8585C17.5142 11.8101 17.8308 11.8004 20.5001 11.8004C23.1694 11.8004 23.4864 11.8109 24.5414 11.8585C25.5163 11.9029 26.0454 12.0664 26.3984 12.2023C26.8653 12.3832 27.1984 12.6003 27.5487 12.9499C27.8989 13.2994 28.1149 13.6328 28.2967 14.0994C28.434 14.4512 28.5964 14.981 28.6407 15.9554C28.6892 17.0097 28.6989 17.3253 28.6989 19.9942C28.6989 22.6631 28.6892 22.9787 28.6407 24.033C28.5963 25.0074 28.4331 25.537 28.2967 25.889C28.1149 26.3556 27.8985 26.6885 27.5487 27.0377C27.1989 27.387 26.8653 27.6037 26.3984 27.7853C26.0464 27.9225 25.5163 28.0848 24.5414 28.1291C23.4873 28.1776 23.1706 28.1872 20.5001 28.1872C17.8296 28.1872 17.5138 28.1776 16.4601 28.1291ZM16.3773 10.0605C15.3127 10.109 14.5852 10.2777 13.95 10.5247C13.292 10.7799 12.7351 11.1221 12.1785 11.6775C11.6219 12.2328 11.2803 12.7904 11.025 13.4479C10.7778 14.0832 10.609 14.8098 10.5606 15.8737C10.5113 16.9394 10.5 17.28 10.5 19.9941C10.5 22.7082 10.5113 23.0489 10.5606 24.1145C10.609 25.1785 10.7778 25.9051 11.025 26.5404C11.2803 27.1975 11.622 27.7556 12.1785 28.3108C12.735 28.8659 13.292 29.2077 13.95 29.4635C14.5864 29.7106 15.3127 29.8793 16.3773 29.9277C17.4441 29.9762 17.7844 29.9883 20.5001 29.9883C23.2158 29.9883 23.5567 29.977 24.623 29.9277C25.6876 29.8793 26.4146 29.7106 27.0503 29.4635C27.7078 29.2077 28.2652 28.8661 28.8217 28.3108C29.3783 27.7554 29.7192 27.1975 29.9752 26.5404C30.2224 25.9051 30.392 25.1784 30.4397 24.1145C30.4882 23.0481 30.4994 22.7082 30.4994 19.9941C30.4994 17.28 30.4882 16.9394 30.4397 15.8737C30.3912 14.8097 30.2224 14.0828 29.9752 13.4479C29.7192 12.7908 29.3774 12.2337 28.8217 11.6775C28.2661 11.1213 27.7078 10.7799 27.0511 10.5247C26.4146 10.2777 25.6875 10.1082 24.6238 10.0605C23.5575 10.0121 23.2166 10 20.5009 10C17.7852 10 17.4441 10.0113 16.3773 10.0605Z" fill="url(#paint1_radial_1_388)"/>
<defs>
<radialGradient id="paint0_radial_1_388" cx="0" cy="0" r="1" gradientUnits="userSpaceOnUse" gradientTransform="translate(13.1572 30.0827) scale(26.1086 26.093)">
<stop offset="0.09" stop-color="#FA8F21"/>
<stop offset="0.78" stop-color="#D82D7E"/>
</radialGradient>
<radialGradient id="paint1_radial_1_388" cx="0" cy="0" r="1" gradientUnits="userSpaceOnUse" gradientTransform="translate(22.6293 30.9781) scale(20.5772 20.5649)">
<stop offset="0.64" stop-color="#8C3AAA" stop-opacity="0"/>
<stop offset="1" stop-color="#8C3AAA"/>
</radialGradient>
</defs>
</svg>
